# xmcd
#
# Track frame offsets: 
#        150
#        44580
#        101240
#
# Disc length: 2466 seconds
#
# Revision: 4
# Processed by: cddbd v1.5.2PL0 Copyright (c) Steve Scherf et al.
# Submitted via: ExactAudioCopyFreeDBPlugin 1.0
#
DISCID=2509a003
DTITLE=Coltrane, John - The Other Village Vanguard Tapes
DYEAR=1961
DGENRE=Jazz
TTITLE0=Chasin' the Trane
TTITLE1=Spiritual
TTITLE2=Untitled original (Brazilia)
EXTD=John Coltrane, The Other Village Vanguard Tapes YEAR: 1961
EXTT0=
EXTT1=
EXTT2=
PLAYORDER=
